<?xml version="1.0" encoding="UTF-8"?>
<!-- Generator: visioncortex VTracer 0.6.12 -->
<svg version="1.1" xmlns="http://www.w3.org/2000/svg" width="1080" height="1080" viewBox="0 0 1080 1080">
<path d="M0,0 L14,0 L30,2 L46,7 L67,17 L77,23 L88,29 L114,43 L129,52 L140,58 L161,70 L175,80 L181,89 L183,99 L181,109 L180,116 L188,115 L200,112 L209,111 L222,111 L235,113 L247,116 L263,124 L279,133 L290,139 L312,151 L322,157 L334,163 L355,175 L367,182 L383,191 L392,198 L396,203 L400,209 L402,215 L402,227 L398,236 L390,246 L379,254 L363,264 L346,275 L331,285 L314,296 L298,306 L276,320 L259,331 L241,342 L220,356 L209,362 L194,372 L175,384 L158,395 L142,405 L125,416 L106,428 L100,431 L95,432 L87,432 L74,427 L64,421 L53,415 L29,402 L19,395 L18,389 L24,384 L43,372 L54,365 L76,351 L98,337 L120,323 L144,308 L163,296 L185,282 L201,272 L216,262 L234,251 L249,241 L257,235 L259,235 L260,227 L255,222 L231,208 L219,202 L195,188 L189,185 L176,184 L167,185 L157,191 L143,200 L131,208 L120,215 L110,222 L101,227 L84,238 L61,253 L36,269 L16,282 L1,292 L-20,305 L-35,315 L-58,330 L-66,335 L-68,339 L-67,345 L-46,357 L-27,368 L-15,374 L4,385 L7,388 L7,393 L-1,400 L-12,406 L-27,416 L-38,423 L-51,431 L-60,436 L-64,437 L-76,437 L-88,432 L-100,425 L-114,418 L-124,412 L-140,404 L-156,395 L-180,382 L-201,370 L-228,355 L-240,348 L-251,342 L-275,329 L-289,321 L-297,316 L-299,313 L-298,308 L-294,303 L-282,296 L-265,285 L-243,271 L-232,264 L-221,262 L-211,265 L-194,275 L-170,288 L-165,291 L-152,291 L-144,287 L-129,277 L-110,265 L-88,251 L-64,236 L-44,223 L-31,215 L-14,204 L5,192 L22,181 L43,168 L53,161 L77,146 L82,140 L82,134 L78,129 L51,114 L35,105 L12,92 L6,90 L-1,90 L-14,95 L-29,104 L-50,117 L-59,123 L-71,130 L-89,141 L-102,149 L-119,159 L-128,165 L-137,170 L-150,178 L-168,189 L-190,203 L-205,212 L-216,219 L-234,230 L-258,245 L-269,253 L-283,260 L-288,261 L-300,261 L-311,257 L-336,244 L-350,237 L-354,236 L-365,236 L-381,241 L-397,251 L-407,256 L-413,254 L-416,251 L-415,243 L-411,237 L-389,223 L-371,212 L-344,196 L-323,183 L-297,167 L-282,158 L-264,147 L-241,133 L-228,125 L-210,114 L-182,97 L-166,87 L-144,74 L-123,61 L-108,52 L-80,35 L-57,21 L-44,13 L-25,5 L-8,1 Z " fill="#84E65B" transform="translate(528,20)"/>
<path d="M0,0 L12,1 L22,7 L29,16 L33,26 L34,30 L34,420 L31,439 L27,453 L22,465 L10,488 L2,500 L-10,514 L-20,524 L-41,538 L-63,551 L-80,561 L-104,575 L-121,585 L-140,596 L-160,608 L-171,615 L-180,620 L-206,636 L-224,647 L-240,657 L-259,669 L-274,679 L-292,691 L-307,701 L-321,710 L-337,721 L-352,731 L-367,741 L-377,747 L-382,749 L-393,749 L-399,746 L-406,738 L-409,731 L-410,726 L-410,601 L-409,483 L-407,310 L-404,290 L-399,275 L-391,258 L-383,247 L-377,239 L-369,230 L-367,230 L-367,228 L-352,217 L-341,210 L-326,201 L-312,192 L-303,186 L-286,175 L-277,170 L-260,159 L-241,147 L-223,136 L-205,124 L-196,119 L-185,112 L-169,102 L-150,90 L-124,73 L-108,63 L-92,53 L-75,42 L-51,27 L-38,19 L-23,9 L-13,3 L-7,1 Z M-68,143 L-79,149 L-94,158 L-108,167 L-119,173 L-142,187 L-159,197 L-172,205 L-181,211 L-192,217 L-220,234 L-235,243 L-253,254 L-270,264 L-292,278 L-307,287 L-312,291 L-318,300 L-320,305 L-321,344 L-323,481 L-324,591 L-322,598 L-319,600 L-312,599 L-288,585 L-273,576 L-258,567 L-232,552 L-217,543 L-206,537 L-192,529 L-172,517 L-161,511 L-141,499 L-130,493 L-106,479 L-87,468 L-75,460 L-72,458 L-72,456 L-70,456 L-70,454 L-68,454 L-59,442 L-55,434 L-52,425 L-52,149 L-57,144 L-59,143 Z " fill="#6376DF" transform="translate(987,309)"/>
<path d="M0,0 L10,0 L20,4 L39,15 L58,26 L66,33 L69,42 L70,45 L70,105 L69,167 L68,366 L68,403 L70,413 L74,419 L79,423 L94,432 L105,438 L128,451 L152,465 L155,467 L161,466 L163,461 L164,275 L165,191 L170,186 L179,187 L203,201 L225,213 L241,223 L248,230 L252,240 L253,243 L253,515 L256,522 L257,525 L262,527 L268,530 L268,532 L272,533 L287,542 L298,548 L319,560 L329,566 L338,571 L343,571 L346,570 L347,559 L348,186 L353,181 L359,181 L385,196 L395,202 L407,209 L413,213 L413,215 L417,217 L426,229 L433,244 L435,253 L435,681 L431,691 L425,699 L420,703 L412,706 L399,706 L388,702 L370,692 L356,684 L343,676 L332,670 L318,662 L294,648 L269,634 L254,625 L243,619 L232,612 L221,600 L213,586 L208,573 L205,566 L196,572 L186,576 L171,576 L159,572 L142,562 L114,546 L96,535 L85,529 L74,523 L50,509 L32,499 L20,491 L8,480 L0,470 L-7,459 L-14,443 L-18,431 L-20,423 L-20,77 L-19,22 L-16,13 L-10,5 Z " fill="#FFFFFF" transform="translate(64,339)"/>
</svg>